<svg viewBox="0 0 64 64" fill="none" xmlns="http://www.w3.org/2000/svg">
<g clip-path="url(#clip0_1029_264)">
<rect x="0.5" y="0.5" width="63" height="63" rx="11.5" fill="#D9D9D9"/>
<rect x="0.5" y="0.5" width="63" height="63" rx="11.5" fill="url(#paint0_linear_1029_264)" fill-opacity="0.7"/>
<rect x="0.5" y="0.5" width="63" height="63" rx="11.5" stroke="#F2F2F2"/>
<rect x="0.5" y="0.5" width="63" height="63" rx="11.5" stroke="url(#paint1_linear_1029_264)" stroke-opacity="0.2"/>
<path fill-rule="evenodd" clip-rule="evenodd" d="M43.8 22C43.9105 22 44 21.9105 44 21.8L44 16.2C44 16.0895 43.9105 16 43.8 16L20.2 16C20.0895 16 20 16.0895 20 16.2L20 21.8C20 21.9105 20.0895 22 20.2 22L43.8 22ZM44 47.8C44 47.9105 43.9105 48 43.8 48L20.2 48C20.0895 48 20 47.9105 20 47.8L20 42.2C20 42.0895 20.0895 42 20.2 42L43.8 42C43.9105 42 44 42.0895 44 42.2L44 47.8ZM40 34.8C40 34.9105 39.9105 35 39.8 35L24.2 35C24.0895 35 24 34.9105 24 34.8L24 29.2C24 29.0895 24.0895 29 24.2 29L39.8 29C39.9105 29 40 29.0895 40 29.2L40 34.8Z" fill="#3C3C43"/>
<path d="M43.8 22L43.8 22.5H43.8L43.8 22ZM20.2 22L20.2 21.5H20.2L20.2 22ZM20.2 42L20.2 41.5H20.2L20.2 42ZM43.8 42L43.8 42.5H43.8L43.8 42ZM24.2 29L24.2 28.5H24.2L24.2 29ZM39.8 29L39.8 29.5H39.8L39.8 29ZM43.5 21.8C43.5 21.6343 43.6343 21.5 43.8 21.5L43.8 22.5C44.1866 22.5 44.5 22.1866 44.5 21.8L43.5 21.8ZM43.5 16.2L43.5 21.8L44.5 21.8L44.5 16.2L43.5 16.2ZM43.8 16.5C43.6343 16.5 43.5 16.3657 43.5 16.2L44.5 16.2C44.5 15.8134 44.1866 15.5 43.8 15.5L43.8 16.5ZM20.2 16.5L43.8 16.5L43.8 15.5L20.2 15.5L20.2 16.5ZM20.5 16.2C20.5 16.3657 20.3657 16.5 20.2 16.5L20.2 15.5C19.8134 15.5 19.5 15.8134 19.5 16.2L20.5 16.2ZM20.5 21.8L20.5 16.2L19.5 16.2L19.5 21.8L20.5 21.8ZM20.2 21.5C20.3657 21.5 20.5 21.6343 20.5 21.8L19.5 21.8C19.5 22.1866 19.8134 22.5 20.2 22.5L20.2 21.5ZM43.8 21.5L20.2 21.5L20.2 22.5L43.8 22.5L43.8 21.5ZM43.8 48.5C44.1866 48.5 44.5 48.1866 44.5 47.8L43.5 47.8C43.5 47.6343 43.6343 47.5 43.8 47.5L43.8 48.5ZM20.2 48.5L43.8 48.5L43.8 47.5L20.2 47.5L20.2 48.5ZM19.5 47.8C19.5 48.1866 19.8134 48.5 20.2 48.5L20.2 47.5C20.3657 47.5 20.5 47.6343 20.5 47.8L19.5 47.8ZM19.5 42.2L19.5 47.8L20.5 47.8L20.5 42.2L19.5 42.2ZM20.2 41.5C19.8134 41.5 19.5 41.8134 19.5 42.2L20.5 42.2C20.5 42.3657 20.3657 42.5 20.2 42.5L20.2 41.5ZM43.8 41.5L20.2 41.5L20.2 42.5L43.8 42.5L43.8 41.5ZM44.5 42.2C44.5 41.8134 44.1866 41.5 43.8 41.5L43.8 42.5C43.6343 42.5 43.5 42.3657 43.5 42.2L44.5 42.2ZM44.5 47.8L44.5 42.2L43.5 42.2L43.5 47.8L44.5 47.8ZM39.8 35.5C40.1866 35.5 40.5 35.1866 40.5 34.8L39.5 34.8C39.5 34.6343 39.6343 34.5 39.8 34.5L39.8 35.5ZM24.2 35.5L39.8 35.5L39.8 34.5L24.2 34.5L24.2 35.5ZM23.5 34.8C23.5 35.1866 23.8134 35.5 24.2 35.5L24.2 34.5C24.3657 34.5 24.5 34.6343 24.5 34.8L23.5 34.8ZM23.5 29.2L23.5 34.8L24.5 34.8L24.5 29.2L23.5 29.2ZM24.2 28.5C23.8134 28.5 23.5 28.8134 23.5 29.2L24.5 29.2C24.5 29.3657 24.3657 29.5 24.2 29.5L24.2 28.5ZM39.8 28.5L24.2 28.5L24.2 29.5L39.8 29.5L39.8 28.5ZM40.5 29.2C40.5 28.8134 40.1866 28.5 39.8 28.5L39.8 29.5C39.6343 29.5 39.5 29.3657 39.5 29.2L40.5 29.2ZM40.5 34.8L40.5 29.2L39.5 29.2L39.5 34.8L40.5 34.8Z" fill="#404040"/>
<path d="M43.8 22L43.8 22.5H43.8L43.8 22ZM20.2 22L20.2 21.5H20.2L20.2 22ZM20.2 42L20.2 41.5H20.2L20.2 42ZM43.8 42L43.8 42.5H43.8L43.8 42ZM24.2 29L24.2 28.5H24.2L24.2 29ZM39.8 29L39.8 29.5H39.8L39.8 29ZM43.5 21.8C43.5 21.6343 43.6343 21.5 43.8 21.5L43.8 22.5C44.1866 22.5 44.5 22.1866 44.5 21.8L43.5 21.8ZM43.5 16.2L43.5 21.8L44.5 21.8L44.5 16.2L43.5 16.2ZM43.8 16.5C43.6343 16.5 43.5 16.3657 43.5 16.2L44.5 16.2C44.5 15.8134 44.1866 15.5 43.8 15.5L43.8 16.5ZM20.2 16.5L43.8 16.5L43.8 15.5L20.2 15.5L20.2 16.5ZM20.5 16.2C20.5 16.3657 20.3657 16.5 20.2 16.5L20.2 15.5C19.8134 15.5 19.5 15.8134 19.5 16.2L20.5 16.2ZM20.5 21.8L20.5 16.2L19.5 16.2L19.5 21.8L20.5 21.8ZM20.2 21.5C20.3657 21.5 20.5 21.6343 20.5 21.8L19.5 21.8C19.5 22.1866 19.8134 22.5 20.2 22.5L20.2 21.5ZM43.8 21.5L20.2 21.5L20.2 22.5L43.8 22.5L43.8 21.5ZM43.8 48.5C44.1866 48.5 44.5 48.1866 44.5 47.8L43.5 47.8C43.5 47.6343 43.6343 47.5 43.8 47.5L43.8 48.5ZM20.2 48.5L43.8 48.5L43.8 47.5L20.2 47.5L20.2 48.5ZM19.5 47.8C19.5 48.1866 19.8134 48.5 20.2 48.5L20.2 47.5C20.3657 47.5 20.5 47.6343 20.5 47.8L19.5 47.8ZM19.5 42.2L19.5 47.8L20.5 47.8L20.5 42.2L19.5 42.2ZM20.2 41.5C19.8134 41.5 19.5 41.8134 19.5 42.2L20.5 42.2C20.5 42.3657 20.3657 42.5 20.2 42.5L20.2 41.5ZM43.8 41.5L20.2 41.5L20.2 42.5L43.8 42.5L43.8 41.5ZM44.5 42.2C44.5 41.8134 44.1866 41.5 43.8 41.5L43.8 42.5C43.6343 42.5 43.5 42.3657 43.5 42.2L44.5 42.2ZM44.5 47.8L44.5 42.2L43.5 42.2L43.5 47.8L44.5 47.8ZM39.8 35.5C40.1866 35.5 40.5 35.1866 40.5 34.8L39.5 34.8C39.5 34.6343 39.6343 34.5 39.8 34.5L39.8 35.5ZM24.2 35.5L39.8 35.5L39.8 34.5L24.2 34.5L24.2 35.5ZM23.5 34.8C23.5 35.1866 23.8134 35.5 24.2 35.5L24.2 34.5C24.3657 34.5 24.5 34.6343 24.5 34.8L23.5 34.8ZM23.5 29.2L23.5 34.8L24.5 34.8L24.5 29.2L23.5 29.2ZM24.2 28.5C23.8134 28.5 23.5 28.8134 23.5 29.2L24.5 29.2C24.5 29.3657 24.3657 29.5 24.2 29.5L24.2 28.5ZM39.8 28.5L24.2 28.5L24.2 29.5L39.8 29.5L39.8 28.5ZM40.5 29.2C40.5 28.8134 40.1866 28.5 39.8 28.5L39.8 29.5C39.6343 29.5 39.5 29.3657 39.5 29.2L40.5 29.2ZM40.5 34.8L40.5 29.2L39.5 29.2L39.5 34.8L40.5 34.8Z" fill-opacity="0.4"/>
</g>
<defs>
<linearGradient id="paint0_linear_1029_264" x1="45" y1="-1.41165e-06" x2="21.5" y2="70.5" gradientUnits="userSpaceOnUse">
<stop stop-color="white"/>
<stop offset="1" stop-color="white"/>
</linearGradient>
<linearGradient id="paint1_linear_1029_264" x1="61" y1="-6.5" x2="5.50001" y2="64" gradientUnits="userSpaceOnUse">
<stop stop-opacity="0"/>
<stop offset="1" stop-opacity="0.8"/>
</linearGradient>
<linearGradient id="paint2_linear_1029_264" x1="15" y1="13.5" x2="46.5" y2="50" gradientUnits="userSpaceOnUse">
<stop stop-color="white" stop-opacity="0"/>
<stop offset="1"/>
</linearGradient>
<clipPath id="clip0_1029_264">
<rect width="64" height="64" fill="white"/>
</clipPath>
</defs>
</svg>
