<svg viewBox="0 0 64 64" fill="none" xmlns="http://www.w3.org/2000/svg">
<g clip-path="url(#clip0_1140_282)">
<rect x="0.5" y="0.5" width="63" height="63" rx="11.5" fill="#D9D9D9"/>
<rect x="0.5" y="0.5" width="63" height="63" rx="11.5" fill="url(#paint0_linear_1140_282)" fill-opacity="0.7"/>
<rect x="0.5" y="0.5" width="63" height="63" rx="11.5" stroke="#F2F2F2"/>
<rect x="0.5" y="0.5" width="63" height="63" rx="11.5" stroke="url(#paint1_linear_1140_282)" stroke-opacity="0.2"/>
<path fill-rule="evenodd" clip-rule="evenodd" d="M22 20.2C22 20.0895 21.9105 20 21.8 20H16.2C16.0895 20 16 20.0895 16 20.2V43.8C16 43.9105 16.0895 44 16.2 44L21.8 44C21.9105 44 22 43.9105 22 43.8L22 20.2ZM47.8 20C47.9105 20 48 20.0895 48 20.2V43.8C48 43.9105 47.9105 44 47.8 44L42.2 44C42.0895 44 42 43.9105 42 43.8L42 20.2C42 20.0895 42.0895 20 42.2 20H47.8ZM34.8 24C34.9105 24 35 24.0895 35 24.2V39.8C35 39.9105 34.9105 40 34.8 40H29.2C29.0895 40 29 39.9105 29 39.8L29 24.2C29 24.0895 29.0895 24 29.2 24H34.8Z" fill="#3C3C43"/>
<path d="M22 20.2L22.5 20.2V20.2H22ZM16.2 44V43.5V44ZM21.8 44V44.5V44ZM22 43.8L21.5 43.8V43.8H22ZM47.8 44L47.8 43.5L47.8 44ZM42.2 44L42.2 44.5L42.2 44ZM42 43.8L41.5 43.8V43.8H42ZM42 20.2L42.5 20.2V20.2H42ZM29 39.8L28.5 39.8V39.8H29ZM29 24.2L29.5 24.2V24.2H29ZM21.8 20.5C21.6343 20.5 21.5 20.3657 21.5 20.2H22.5C22.5 19.8134 22.1866 19.5 21.8 19.5V20.5ZM16.2 20.5H21.8V19.5H16.2V20.5ZM16.5 20.2C16.5 20.3657 16.3657 20.5 16.2 20.5V19.5C15.8134 19.5 15.5 19.8134 15.5 20.2H16.5ZM16.5 43.8V20.2H15.5V43.8H16.5ZM16.2 43.5C16.3657 43.5 16.5 43.6343 16.5 43.8H15.5C15.5 44.1866 15.8134 44.5 16.2 44.5V43.5ZM21.8 43.5L16.2 43.5L16.2 44.5L21.8 44.5L21.8 43.5ZM21.5 43.8C21.5 43.6343 21.6343 43.5 21.8 43.5V44.5C22.1866 44.5 22.5 44.1866 22.5 43.8H21.5ZM21.5 20.2L21.5 43.8L22.5 43.8L22.5 20.2L21.5 20.2ZM48.5 20.2C48.5 19.8134 48.1866 19.5 47.8 19.5V20.5C47.6343 20.5 47.5 20.3657 47.5 20.2H48.5ZM48.5 43.8V20.2H47.5V43.8H48.5ZM47.8 44.5C48.1866 44.5 48.5 44.1866 48.5 43.8H47.5C47.5 43.6343 47.6343 43.5 47.8 43.5V44.5ZM42.2 44.5L47.8 44.5L47.8 43.5L42.2 43.5L42.2 44.5ZM41.5 43.8C41.5 44.1866 41.8134 44.5 42.2 44.5V43.5C42.3657 43.5 42.5 43.6343 42.5 43.8H41.5ZM41.5 20.2L41.5 43.8L42.5 43.8L42.5 20.2L41.5 20.2ZM42.2 19.5C41.8134 19.5 41.5 19.8134 41.5 20.2H42.5C42.5 20.3657 42.3657 20.5 42.2 20.5V19.5ZM47.8 19.5H42.2V20.5H47.8V19.5ZM35.5 24.2C35.5 23.8134 35.1866 23.5 34.8 23.5V24.5C34.6343 24.5 34.5 24.3657 34.5 24.2H35.5ZM35.5 39.8V24.2H34.5V39.8H35.5ZM34.8 40.5C35.1866 40.5 35.5 40.1866 35.5 39.8H34.5C34.5 39.6343 34.6343 39.5 34.8 39.5V40.5ZM29.2 40.5H34.8V39.5H29.2V40.5ZM28.5 39.8C28.5 40.1866 28.8134 40.5 29.2 40.5V39.5C29.3657 39.5 29.5 39.6343 29.5 39.8H28.5ZM28.5 24.2L28.5 39.8L29.5 39.8L29.5 24.2L28.5 24.2ZM29.2 23.5C28.8134 23.5 28.5 23.8134 28.5 24.2H29.5C29.5 24.3657 29.3657 24.5 29.2 24.5V23.5ZM34.8 23.5H29.2V24.5H34.8V23.5Z" fill="#404040"/>
<path d="M22 20.2L22.5 20.2V20.2H22ZM16.2 44V43.5V44ZM21.8 44V44.5V44ZM22 43.8L21.5 43.8V43.8H22ZM47.8 44L47.8 43.5L47.8 44ZM42.2 44L42.2 44.5L42.2 44ZM42 43.8L41.5 43.8V43.8H42ZM42 20.2L42.5 20.2V20.2H42ZM29 39.8L28.5 39.8V39.8H29ZM29 24.2L29.5 24.2V24.2H29ZM21.8 20.5C21.6343 20.5 21.5 20.3657 21.5 20.2H22.5C22.5 19.8134 22.1866 19.5 21.8 19.5V20.5ZM16.2 20.5H21.8V19.5H16.2V20.5ZM16.5 20.2C16.5 20.3657 16.3657 20.5 16.2 20.5V19.5C15.8134 19.5 15.5 19.8134 15.5 20.2H16.5ZM16.5 43.8V20.2H15.5V43.8H16.5ZM16.2 43.5C16.3657 43.5 16.5 43.6343 16.5 43.8H15.5C15.5 44.1866 15.8134 44.5 16.2 44.5V43.5ZM21.8 43.5L16.2 43.5L16.2 44.5L21.8 44.5L21.8 43.5ZM21.5 43.8C21.5 43.6343 21.6343 43.5 21.8 43.5V44.5C22.1866 44.5 22.5 44.1866 22.5 43.8H21.5ZM21.5 20.2L21.5 43.8L22.5 43.8L22.5 20.2L21.5 20.2ZM48.5 20.2C48.5 19.8134 48.1866 19.5 47.8 19.5V20.5C47.6343 20.5 47.5 20.3657 47.5 20.2H48.5ZM48.5 43.8V20.2H47.5V43.8H48.5ZM47.8 44.5C48.1866 44.5 48.5 44.1866 48.5 43.8H47.5C47.5 43.6343 47.6343 43.5 47.8 43.5V44.5ZM42.2 44.5L47.8 44.5L47.8 43.5L42.2 43.5L42.2 44.5ZM41.5 43.8C41.5 44.1866 41.8134 44.5 42.2 44.5V43.5C42.3657 43.5 42.5 43.6343 42.5 43.8H41.5ZM41.5 20.2L41.5 43.8L42.5 43.8L42.5 20.2L41.5 20.2ZM42.2 19.5C41.8134 19.5 41.5 19.8134 41.5 20.2H42.5C42.5 20.3657 42.3657 20.5 42.2 20.5V19.5ZM47.8 19.5H42.2V20.5H47.8V19.5ZM35.5 24.2C35.5 23.8134 35.1866 23.5 34.8 23.5V24.5C34.6343 24.5 34.5 24.3657 34.5 24.2H35.5ZM35.5 39.8V24.2H34.5V39.8H35.5ZM34.8 40.5C35.1866 40.5 35.5 40.1866 35.5 39.8H34.5C34.5 39.6343 34.6343 39.5 34.8 39.5V40.5ZM29.2 40.5H34.8V39.5H29.2V40.5ZM28.5 39.8C28.5 40.1866 28.8134 40.5 29.2 40.5V39.5C29.3657 39.5 29.5 39.6343 29.5 39.8H28.5ZM28.5 24.2L28.5 39.8L29.5 39.8L29.5 24.2L28.5 24.2ZM29.2 23.5C28.8134 23.5 28.5 23.8134 28.5 24.2H29.5C29.5 24.3657 29.3657 24.5 29.2 24.5V23.5ZM34.8 23.5H29.2V24.5H34.8V23.5Z" fill="url(#paint2_linear_1140_282)" fill-opacity="0.4"/>
</g>
<defs>
<linearGradient id="paint0_linear_1140_282" x1="45" y1="-1.41165e-06" x2="21.5" y2="70.5" gradientUnits="userSpaceOnUse">
<stop stop-color="white"/>
<stop offset="1" stop-color="#ADADAD"/>
</linearGradient>
<linearGradient id="paint1_linear_1140_282" x1="61" y1="-6.5" x2="5.50001" y2="64" gradientUnits="userSpaceOnUse">
<stop stop-opacity="0"/>
<stop offset="1" stop-opacity="0.8"/>
</linearGradient>
<linearGradient id="paint2_linear_1140_282" x1="13.5" y1="49" x2="50" y2="17.5" gradientUnits="userSpaceOnUse">
<stop stop-color="white" stop-opacity="0"/>
<stop offset="1"/>
</linearGradient>
<clipPath id="clip0_1140_282">
<rect width="64" height="64" fill="white"/>
</clipPath>
</defs>
</svg>
