<svg viewBox="0 0 64 64" fill="none" xmlns="http://www.w3.org/2000/svg">
  <rect width="64" height="64" fill="black"/>
  <path d="M29.3984 34.2759C29.3984 35.7425 28.9263 36.9437 27.9821 37.8793L22.839 43H19.5593L14.4162 37.8793C13.4721 36.9437 13 35.7425 13 34.2759V21H16.8387V34.1241C16.8387 34.7563 17.0002 35.2368 17.3232 35.5655L21.2365 39.5862L25.0752 35.5655C25.3982 35.2368 25.5597 34.7563 25.5597 34.1241V21H29.3984V34.2759Z" fill="white"/>
  <path d="M52 34.2759C52 35.7425 51.5279 36.9437 50.5838 37.8793L45.4407 43H42.161L37.0178 37.8793C36.0737 36.9437 35.6016 35.7425 35.6016 34.2759V21H39.4403V34.1241C39.4403 34.7563 39.6018 35.2368 39.9248 35.5655L43.8381 39.5862L47.6768 35.5655C47.9998 35.2368 48.1613 34.7563 48.1613 34.1241V21H52V34.2759Z" fill="white"/>
</svg>
