<svg width="140" height="140" viewBox="0 0 140 140" fill="none" xmlns="http://www.w3.org/2000/svg">
<rect width="140" height="140" fill="#131313"/>
<path d="M24.5 38V24.5H115.5V38V115.5H24.5V38Z" stroke="white" stroke-width="5"/>
<path d="M24.5 38V24.5H115.5V38V115.5H24.5V38Z" stroke="white" stroke-width="5"/>
<path d="M118 38H22" stroke="white" stroke-width="5"/>
<path d="M92.9145 61.0682C92.9145 60.4578 93.3723 60 93.9827 60H97.0347C97.6452 60 98.103 60.4578 98.103 61.0682V81.6696C98.103 81.7714 98.103 81.924 98.0521 82.0766L97.4926 83.3991C97.3908 83.5517 97.34 83.6535 97.2382 83.7552L87.9803 93.0131C87.7768 93.2166 87.5225 93.3183 87.2173 93.3183H84.5722C84.3178 93.3183 84.0126 93.2166 83.8092 93.0131L74.5512 83.7552C74.4495 83.6535 74.3986 83.5517 74.3478 83.3991L73.7882 82.0766C73.7374 81.924 73.6865 81.7714 73.6865 81.6696V61.0682C73.6865 60.4578 74.1443 60 74.7547 60H77.8068C78.4172 60 78.875 60.4578 78.875 61.0682V80.2962C78.875 80.6014 79.0276 80.8557 79.1802 81.0592L85.1317 86.9599C85.5387 87.4177 86.2508 87.4177 86.6577 86.9599L92.6093 81.0592C92.8127 80.8557 92.9145 80.6014 92.9145 80.2962V61.0682Z" fill="white"/>
<path d="M60.228 61.0682C60.228 60.4578 60.6858 60 61.2962 60H64.3483C64.9587 60 65.4165 60.4578 65.4165 61.0682V81.6696C65.4165 81.7714 65.4165 81.924 65.3656 82.0766L64.8061 83.3991C64.7043 83.5517 64.6535 83.6535 64.5517 83.7552L55.2938 93.0131C55.0903 93.2166 54.836 93.3183 54.5308 93.3183H51.8857C51.6313 93.3183 51.3261 93.2166 51.1227 93.0131L41.8648 83.7552C41.763 83.6535 41.7121 83.5517 41.6613 83.3991L41.1017 82.0766C41.0509 81.924 41 81.7714 41 81.6696V61.0682C41 60.4578 41.4578 60 42.0682 60H45.1203C45.7307 60 46.1885 60.4578 46.1885 61.0682V80.2962C46.1885 80.6014 46.3411 80.8557 46.4937 81.0592L52.4452 86.9599C52.8522 87.4177 53.5643 87.4177 53.9713 86.9599L59.9228 81.0592C60.1262 80.8557 60.228 80.6014 60.228 80.2962V61.0682Z" fill="white"/>
</svg>
